<?xml version="1.0" encoding="UTF-8" standalone="no"?>
<!-- Created with Inkscape (http://www.inkscape.org/) -->

<svg
   width="611.82544mm"
   height="163.84013mm"
   viewBox="0 0 611.82544 163.84013"
   version="1.1"
   id="svg1"
   inkscape:version="1.3 (0e150ed6c4, 2023-07-21)"
   sodipodi:docname="logo1.svg"
   xml:space="preserve"
   inkscape:export-filename="logo1.svg"
   inkscape:export-xdpi="96.010002"
   inkscape:export-ydpi="96.010002"
   xmlns:inkscape="http://www.inkscape.org/namespaces/inkscape"
   xmlns:sodipodi="http://sodipodi.sourceforge.net/DTD/sodipodi-0.dtd"
   xmlns="http://www.w3.org/2000/svg"
   xmlns:svg="http://www.w3.org/2000/svg"><sodipodi:namedview
     id="namedview1"
     pagecolor="#ffffff"
     bordercolor="#000000"
     borderopacity="0.25"
     inkscape:showpageshadow="2"
     inkscape:pageopacity="0.0"
     inkscape:pagecheckerboard="0"
     inkscape:deskcolor="#d1d1d1"
     inkscape:document-units="mm"
     showguides="false"
     inkscape:zoom="0.31331116"
     inkscape:cx="4187.5304"
     inkscape:cy="13039.753"
     inkscape:window-width="1920"
     inkscape:window-height="986"
     inkscape:window-x="-11"
     inkscape:window-y="-11"
     inkscape:window-maximized="1"
     inkscape:current-layer="layer1"
     showgrid="false"
     inkscape:lockguides="true"><sodipodi:guide
       position="1155.2929,418.85817"
       orientation="0,-1"
       id="guide2"
       inkscape:locked="true" /><sodipodi:guide
       position="1195.1564,330.64246"
       orientation="0,-1"
       id="guide4"
       inkscape:locked="true" /><sodipodi:guide
       position="1239.3788,304.22542"
       orientation="0,-1"
       id="guide5"
       inkscape:locked="true" /><inkscape:grid
       id="grid11"
       units="mm"
       originx="-3329.852"
       originy="-10606.309"
       spacingx="0.99999997"
       spacingy="0.99999999"
       empcolor="#0099e5"
       empopacity="0.30196078"
       color="#0099e5"
       opacity="0.14901961"
       empspacing="5"
       dotted="false"
       gridanglex="30"
       gridanglez="30"
       visible="false" /><sodipodi:guide
       position="1147.1371,848.20239"
       orientation="0,-1"
       id="guide14"
       inkscape:locked="true" /><sodipodi:guide
       position="1015.9363,672.54944"
       orientation="1,0"
       id="guide15"
       inkscape:locked="true" /><sodipodi:guide
       position="1075.725,770.47101"
       orientation="0,-1"
       id="guide16"
       inkscape:locked="true" /><sodipodi:guide
       position="1154.8155,658.89691"
       orientation="0,-1"
       id="guide17"
       inkscape:locked="true" /><sodipodi:guide
       position="1070.5725,681.75764"
       orientation="0,-1"
       id="guide18"
       inkscape:locked="true" /><sodipodi:guide
       position="1168.7749,654.12782"
       orientation="0,-1"
       id="guide19"
       inkscape:locked="true" /><sodipodi:guide
       position="1803.7978,1839.8338"
       orientation="1,0"
       id="guide3"
       inkscape:locked="true" /><sodipodi:guide
       position="2104.2993,1722.5318"
       orientation="1,0"
       id="guide6"
       inkscape:locked="true" /><sodipodi:guide
       position="1792.8196,1790.0098"
       orientation="1,0"
       id="guide7"
       inkscape:locked="true" /><sodipodi:guide
       position="2107.8087,1762.1422"
       orientation="1,0"
       id="guide8"
       inkscape:locked="true" /><sodipodi:guide
       position="1231.2898,1030.4538"
       orientation="0,-1"
       id="guide9"
       inkscape:locked="true" /><sodipodi:guide
       position="910.33038,1289.6099"
       orientation="1,0"
       id="guide10"
       inkscape:locked="true" /><sodipodi:guide
       position="826.73166,1274.383"
       orientation="1,0"
       id="guide11"
       inkscape:locked="true" /><sodipodi:guide
       position="906.00116,1313.0474"
       orientation="1,0"
       id="guide12"
       inkscape:locked="true" /><sodipodi:guide
       position="992.13771,1303.3439"
       orientation="1,0"
       id="guide13"
       inkscape:locked="true" /></sodipodi:namedview><defs
     id="defs1"><inkscape:path-effect
       effect="powerstroke"
       id="path-effect11-9-4-8-2-2-4"
       is_visible="true"
       lpeversion="1.3"
       scale_width="1"
       interpolator_type="CentripetalCatmullRom"
       interpolator_beta="0.2"
       start_linecap_type="zerowidth"
       end_linecap_type="zerowidth"
       offset_points="0.2,2.55 | 1.5,2.55 | 2.8,2.55"
       linejoin_type="round"
       miter_limit="4"
       not_jump="false"
       sort_points="true"
       message="&lt;b&gt;Ctrl + clique&lt;/b&gt; no nó existente e mova-o" /><inkscape:path-effect
       effect="bspline"
       id="path-effect20-0-5-9-5-3-4"
       is_visible="true"
       lpeversion="1.3"
       weight="33.333333"
       steps="2"
       helper_size="0"
       apply_no_weight="true"
       apply_with_weight="true"
       only_selected="false"
       uniform="false" /><inkscape:path-effect
       effect="powerstroke"
       id="path-effect21-2-1-0-3-5-46"
       is_visible="true"
       lpeversion="1.3"
       scale_width="1"
       interpolator_type="CentripetalCatmullRom"
       interpolator_beta="0.2"
       start_linecap_type="zerowidth"
       end_linecap_type="zerowidth"
       offset_points="0.69628217,6.8409132 | 1.5,2.55 | 2.8,2.55"
       linejoin_type="round"
       miter_limit="4"
       not_jump="false"
       sort_points="true"
       message="&lt;b&gt;Ctrl + clique&lt;/b&gt; no nó existente e mova-o" /><inkscape:path-effect
       effect="bspline"
       id="path-effect20-2-4-4-4-1-9"
       is_visible="true"
       lpeversion="1.3"
       weight="33.333333"
       steps="2"
       helper_size="0"
       apply_no_weight="true"
       apply_with_weight="true"
       only_selected="false"
       uniform="false" /><inkscape:path-effect
       effect="powerstroke"
       id="path-effect21-0-4-7-9-7-4"
       is_visible="true"
       lpeversion="1.3"
       scale_width="1"
       interpolator_type="CentripetalCatmullRom"
       interpolator_beta="0.2"
       start_linecap_type="zerowidth"
       end_linecap_type="zerowidth"
       offset_points="0.69628217,6.8409132 | 1.5,2.55 | 2.8,2.55"
       linejoin_type="round"
       miter_limit="4"
       not_jump="false"
       sort_points="true"
       message="&lt;b&gt;Ctrl + clique&lt;/b&gt; no nó existente e mova-o" /></defs><g
     inkscape:label="Camada 1"
     inkscape:groupmode="layer"
     id="layer1"
     transform="translate(-881.02334,-2806.2525)"><text
       xml:space="preserve"
       style="font-style:normal;font-variant:normal;font-weight:normal;font-stretch:normal;font-size:122.73px;font-family:Cambria;-inkscape-font-specification:Cambria;fill:#36820d;fill-opacity:1;stroke:#234d20;stroke-width:3.26003;stroke-linecap:square;stroke-linejoin:round;stroke-opacity:1"
       x="1060.9473"
       y="2862.0049"
       id="text4-7-9-4-6-1"
       transform="scale(0.97362602,1.0270884)"><tspan
         sodipodi:role="line"
         id="tspan4-4-5-6-7-2"
         style="font-style:normal;font-variant:normal;font-weight:normal;font-stretch:normal;font-family:Caladea;-inkscape-font-specification:Caladea;fill:#36820d;fill-opacity:1;stroke:#234d20;stroke-width:3.26003;stroke-opacity:1"
         x="1060.9473"
         y="2862.0049">Bag <tspan
   style="font-style:normal;font-variant:normal;font-weight:normal;font-stretch:normal;font-family:Cambria;-inkscape-font-specification:Cambria"
   id="tspan3-8">&amp;</tspan> co</tspan></text><path
       style="fill:#234d20;fill-opacity:1;fill-rule:nonzero;stroke:#234d20;stroke-width:0;stroke-linecap:square;stroke-linejoin:round;stroke-dasharray:none;stroke-opacity:1"
       d="m 1798.8712,1439.6291 c 0.5611,-1.7463 1.9027,-4.303 3.7811,-6.3717 0.7239,-0.7972 1.4725,-1.4708 2.2718,-2.0897 0.4451,-0.3445 0.9263,-0.6814 1.4642,-1.0062 1.0954,-0.6615 2.3938,-1.2552 4.131,-1.7953 1.5032,-0.4673 3.1048,-0.8294 5.1636,-1.2499 1.6963,-0.3464 3.9051,-0.7698 5.9538,-1.2884 1.9952,-0.505 4.1609,-1.1733 6.2898,-2.1752 2.0643,-0.9714 4.1167,-2.2659 6.0083,-4.0651 1.8582,-1.7675 3.5029,-3.9663 4.8657,-6.7206 a 2.9367708,2.893034 72.576826 0 0 -5.1467,-2.7373 c -0.6229,1.1731 -1.1121,2.4577 -1.5051,3.798 -0.3945,1.3456 -0.7017,2.7804 -0.9473,4.2633 -0.4945,2.9868 -0.7585,6.2968 -0.9446,9.6164 -0.1933,3.4478 -0.3087,6.9722 -0.4812,10.3585 -0.1843,3.6166 -0.4246,6.9519 -0.8401,10.0416 -0.4115,3.0589 -1.0103,5.9819 -1.918,8.4947 -0.8652,2.3948 -1.9686,4.2997 -3.3529,5.636 -0.6671,0.6439 -1.403,1.16 -2.2248,1.5454 -0.8123,0.381 -1.744,0.651 -2.8291,0.7741 -1.0825,0.1228 -2.3354,0.1011 -3.7899,-0.1172 -1.4279,-0.2144 -3.0385,-0.6167 -4.8542,-1.2481 -0.8632,-0.36 -1.5038,-0.7144 -1.969,-1.0427 -0.4715,-0.3329 -0.7319,-0.617 -0.8705,-0.8238 -0.1342,-0.2002 -0.1632,-0.3391 -0.1723,-0.4397 -0.01,-0.1004 -0.01,-0.2604 0.043,-0.4869 0.053,-0.2466 0.1587,-0.5721 0.3578,-0.9912 0.2038,-0.4287 0.4837,-0.9104 0.8467,-1.4496 0.7706,-1.1447 1.8107,-2.3946 2.9763,-3.7149 1.3074,-1.481 2.6158,-2.8852 3.9231,-4.3662 1.547,-1.7545 2.833,-3.3282 3.8803,-4.8641 0.5065,-0.7428 0.9316,-1.4405 1.2812,-2.0976 0.6251,-1.1751 1.0314,-2.3 1.2616,-3.3427 0.2371,-1.0735 0.2785,-2.0157 0.2148,-2.8158 -0.094,-1.1848 -0.414,-1.9977 -0.5798,-2.4999 -0.2051,0.5183 -0.6469,1.1682 -1.3262,1.9324 -0.4584,0.5157 -0.9886,1.0472 -1.6282,1.6774 -0.6068,0.5978 -1.3233,1.2955 -2.0978,2.092 -0.5707,0.587 -0.9134,0.9434 -1.4841,1.5304 -1.4602,1.5003 -2.1566,2.1905 -4.0789,4.1229 -1.2595,1.2663 -2.8121,2.835 -4.1693,4.3325 -1.2461,1.3751 -2.5354,2.9131 -3.5483,4.4823 -0.4869,0.7542 -0.9375,1.5572 -1.2962,2.3944 -0.3493,0.8153 -0.63,1.7057 -0.7552,2.6477 -0.1242,0.9339 -0.096,1.9227 0.1727,2.9202 0.2661,0.9889 0.7444,1.8975 1.4122,2.709 0.653,0.7933 1.4585,1.4625 2.3818,2.04 0.9129,0.5709 1.9632,1.065 3.138,1.4987 a 0.13571108,8.2265272e-4 20.319016 0 0 0.1208,0.044 c 2.1572,0.708 4.1722,1.1764 6.0547,1.4097 1.8887,0.2341 3.6514,0.2321 5.2874,-0.01 1.6526,-0.24 3.1576,-0.7175 4.5174,-1.4125 1.3742,-0.7024 2.5622,-1.6074 3.5867,-2.6581 2.0864,-2.1399 3.4744,-4.8623 4.4486,-7.6968 1.0283,-2.9918 1.6597,-6.3038 2.0937,-9.5304 0.4425,-3.2892 0.716,-6.7615 0.9488,-10.4256 0.2185,-3.4373 0.394,-6.9519 0.6517,-10.3006 0.2506,-3.2578 0.5777,-6.3187 1.0991,-8.9844 0.2569,-1.3137 0.556,-2.5052 0.9058,-3.562 0.3497,-1.0565 0.7387,-1.9439 1.1633,-2.6689 l -5.1467,-2.7373 c -1.1412,2.1336 -2.4372,3.7081 -3.7984,4.9109 -1.3887,1.2271 -2.9019,2.1167 -4.4903,2.8058 -1.6597,0.72 -3.4247,1.23 -5.2217,1.657 -1.9178,0.4557 -3.8671,0.8179 -5.749,1.2269 -2.1157,0.4599 -4.067,0.96 -5.909,1.6707 -2.2087,0.8523 -4.0213,1.9224 -5.4898,3.2524 -0.711,0.644 -1.3044,1.3167 -1.7935,1.9941 -0.8754,1.2125 -1.4511,2.516 -1.8178,3.8066 -0.9088,3.1989 -0.5364,6.459 -0.4712,8.0961 z"
       id="path7-3-5-6-0-5-9-6"
       inkscape:transform-center-x="-7.8684206"
       inkscape:transform-center-y="5.0481716"
       sodipodi:nodetypes="cccc"
       inkscape:path-effect="#path-effect11-9-4-8-2-2-4"
       inkscape:original-d="m 1798.8712,1439.6291 c 3.2413,-23.7696 27.371,-8.6435 37.335,-28.0913 -8.3768,15.1838 4.8174,65.3479 -27.2698,54.4823 -16.3831,-6.3664 11.8842,-19.9483 12.2237,-31.6628"
       transform="matrix(0.59487453,0,0,0.47474234,398.78835,2183.6027)" /><path
       style="fill:#36820d;fill-opacity:1;fill-rule:nonzero;stroke:none;stroke-width:1.69588;stroke-linecap:square;stroke-linejoin:round"
       d="m 938.22762,2872.1479 c 0.1996,-0.5428 0.6768,-1.3375 1.3451,-1.9806 0.2575,-0.2478 0.5238,-0.4571 0.8081,-0.6495 0.1584,-0.107 0.3295,-0.2118 0.5209,-0.3127 0.3896,-0.2057 0.8515,-0.3902 1.4695,-0.5581 0.5347,-0.1453 1.1044,-0.2578 1.8368,-0.3885 0.6034,-0.1077 1.3892,-0.2393 2.1179,-0.4005 0.7098,-0.157 1.4802,-0.3646 2.2375,-0.6761 0.7343,-0.3019 1.4644,-0.7044 2.1373,-1.2636 0.661,-0.5494 1.2461,-1.2328 1.7309,-2.0889 a 1.0306722,0.91148658 1.9952932 0 0 -1.8309,-0.8509 c -0.2215,0.3646 -0.3956,0.7639 -0.5354,1.1805 -0.1403,0.4183 -0.2496,0.8642 -0.3369,1.3252 -0.1759,0.9285 -0.2699,1.9573 -0.3361,2.9892 -0.069,1.0717 -0.1098,2.1672 -0.1711,3.2197 -0.066,1.1242 -0.1511,2.1609 -0.2989,3.1213 -0.1464,0.9508 -0.3594,1.8593 -0.6823,2.6404 -0.3078,0.7445 -0.7002,1.3365 -1.1927,1.7519 -0.2373,0.2002 -0.4991,0.3606 -0.7914,0.4804 -0.289,0.1185 -0.6204,0.2023 -1.0064,0.2406 -0.3851,0.039 -0.8308,0.031 -1.3482,-0.037 -0.5079,-0.066 -1.0808,-0.1917 -1.7268,-0.3878 -0.307,-0.112 -0.5349,-0.2222 -0.7004,-0.3242 -0.1677,-0.1035 -0.2603,-0.1918 -0.3096,-0.2561 -0.048,-0.063 -0.058,-0.1054 -0.061,-0.1367 -0.01,-0.031 -0.01,-0.081 0.015,-0.1513 0.019,-0.077 0.056,-0.1779 0.1272,-0.3081 0.072,-0.1333 0.1721,-0.283 0.3012,-0.4505 0.2742,-0.3559 0.6442,-0.7445 1.0588,-1.1548 0.4651,-0.4603 0.9305,-0.8968 1.3955,-1.3571 0.5503,-0.5455 1.0078,-1.0346 1.3804,-1.512 0.1802,-0.2309 0.3314,-0.4478 0.4557,-0.6521 0.2224,-0.3652 0.3669,-0.7148 0.4488,-1.039 0.084,-0.3336 0.099,-0.6265 0.076,-0.8752 -0.033,-0.3683 -0.1473,-0.621 -0.2062,-0.7771 -0.073,0.1612 -0.2301,0.3631 -0.4718,0.6007 -0.1631,0.1603 -0.3517,0.3255 -0.5792,0.5214 -0.2159,0.1858 -0.4707,0.4027 -0.7462,0.6502 -0.203,0.1826 -0.325,0.2934 -0.528,0.4757 -0.5194,0.4664 -0.7671,0.681 -1.4509,1.2816 -0.4481,0.3936 -1.0004,0.8812 -1.4832,1.3467 -0.4433,0.4274 -0.9019,0.9055 -1.2622,1.3933 -0.1732,0.2344 -0.3335,0.484 -0.4611,0.7442 -0.1243,0.2534 -0.2241,0.5301 -0.2686,0.823 -0.044,0.2903 -0.034,0.5976 0.061,0.9077 0.095,0.3074 0.2648,0.5899 0.5023,0.8421 0.2323,0.2466 0.5189,0.4546 0.8473,0.6342 0.3247,0.1774 0.6984,0.3309 1.1163,0.4657 a 0.05530598,3.0154291e-4 17.929279 0 0 0.043,0.014 c 0.7674,0.22 1.4842,0.3656 2.1538,0.4382 0.6719,0.072 1.2989,0.071 1.8809,0 0.5879,-0.075 1.1233,-0.2231 1.607,-0.439 0.4888,-0.2185 0.9114,-0.4997 1.2758,-0.8264 0.7423,-0.665 1.236,-1.5113 1.5825,-2.3923 0.3658,-0.9301 0.5905,-1.9595 0.7448,-2.9625 0.1574,-1.0223 0.2547,-2.1016 0.3375,-3.2405 0.078,-1.0685 0.1402,-2.161 0.2319,-3.2019 0.089,-1.0126 0.2055,-1.964 0.391,-2.7926 0.091,-0.4083 0.1977,-0.7787 0.3222,-1.1073 0.1244,-0.3283 0.2627,-0.6041 0.4138,-0.8295 l -1.8308,-0.8509 c -0.406,0.6633 -0.867,1.1526 -1.3512,1.5266 -0.494,0.3814 -1.0323,0.6579 -1.5973,0.8721 -0.5905,0.2238 -1.2183,0.3823 -1.8576,0.5151 -0.6822,0.1416 -1.3756,0.2541 -2.045,0.3812 -0.7526,0.143 -1.4468,0.2985 -2.102,0.5194 -0.7857,0.2649 -1.4305,0.5976 -1.9529,1.0109 -0.2529,0.2002 -0.464,0.4093 -0.638,0.6199 -0.3114,0.3769 -0.5162,0.7821 -0.6466,1.1833 -0.3233,0.9942 -0.1909,2.0076 -0.1676,2.5164 z"
       id="path7-3-55-5-9-8-0-2"
       inkscape:transform-center-x="-10.335247"
       inkscape:transform-center-y="7.2256955"
       sodipodi:nodetypes="cccc" /><path
       id="path21-0-2-8-4-9"
       style="display:inline;fill:#f0f7da;fill-opacity:1;stroke:none;stroke-width:2.35988;stroke-linecap:square;stroke-linejoin:round"
       inkscape:label="fundo_bolsa"
       d="m 947.98296,2807.1899 -7.18664,1.1302 -7.33909,0.9684 -9.17463,2.9063 -7.18664,4.0359 -5.04569,4.5206 -2.59932,2.9058 -1.83452,2.7445 -2.90524,5.0049 -0.76482,3.8742 -2.09754,7.875 -1.29708,6.1644 v 4.5662 l -0.43253,8.448 -4.1088,1.1416 -4.3248,-0.4569 -3.94704,3.0169 -4.73976,10.5746 -0.91778,15.6605 0.91778,22.1175 3.51658,19.2118 5.35161,20.9878 13.60847,13.5615 H 947.83 l 22.93555,1.1301 18.34875,-0.8071 8.1039,-1.9374 8.5623,-16.306 6.1159,-20.5031 2.7528,-18.4051 0.3054,-9.3638 0.4589,-5.0048 0.3059,-4.1972 v -4.8436 -4.8431 l -2.2174,-11.3012 -1.8346,-3.5517 -3.1346,-2.8251 -2.8288,-1.6149 -5.1987,-0.7261 -3.21113,-0.1617 0.26768,-7.9913 -0.9555,-12.3506 -1.98747,-7.7494 -2.90525,-5.3273 -7.03368,-10.171 -5.04569,-4.0364 -7.03368,-3.39 -9.48004,-2.9063 -6.42183,-1.1297 z m -2.56211,9.6423 9.29814,0.9069 11.13627,1.8139 10.37973,7.029 c 0,0 4.21635,4.3079 4.3248,4.7615 0.10816,0.4534 3.13521,6.3489 3.13521,6.3489 l 3.13572,9.7498 0.10852,8.0491 -0.86506,7.4823 -15.6776,-0.7933 -47.78881,0.2269 -10.48722,-0.1137 -1.08159,-3.4013 -0.97306,-8.8429 1.6216,-8.0491 c 0,0 2.91925,-6.9153 3.35174,-7.3686 0.43228,-0.4536 4.00027,-6.0089 4.00027,-6.0089 l 4.00027,-3.4013 5.83841,-3.514 7.56853,-2.9477 z" /><path
       style="fill:#c9dfba;fill-opacity:1;fill-rule:nonzero;stroke:none;stroke-width:5.1;stroke-linecap:square;stroke-linejoin:round;stroke-dasharray:none;stroke-dashoffset:0;stroke-opacity:1;paint-order:normal"
       d="m 2262.5464,642.61742 c -2.6825,-0.49408 -9.7656,-2.05769 -15.6481,-4.09914 -4.7924,-1.66317 -9.1885,-3.72212 -13.3447,-6.62087 -3.2809,-2.28834 -6.1526,-4.91374 -8.9611,-7.94022 -0.8181,-0.8816 -1.6468,-1.81732 -2.4821,-2.81421 -3.8604,-4.60685 -8.0833,-10.78008 -12.2171,-19.53173 -4.0178,-8.50616 -7.9918,-19.55434 -11.487,-32.52828 -3.2294,-11.9873 -6.0572,-25.65814 -8.0496,-40.17534 -1.8749,-13.6613 -3.08,-27.50781 -3.5035,-40.34203 -0.4065,-12.32028 -0.096,-23.88128 1.095,-33.18232 1.1229,-8.77149 3.0242,-15.48149 5.4457,-20.49323 2.2411,-4.63818 4.8688,-7.705 7.6281,-9.70092 2.54,-1.83731 5.2262,-2.79624 7.9577,-3.27324 0.5189,-0.0906 1.0376,-0.16357 1.5557,-0.2221 0.7482,-0.0845 1.5003,-0.13761 2.2652,-0.16798 1.2117,-0.0481 2.3171,-0.0356 3.4851,-0.024 2.4496,-0.0788 5.5174,-0.24478 8.706,-0.44338 l -1.5964,-1.18856 c 0.375,0.2598 0.783,0.52187 1.1575,0.75783 l 1.6726,-0.55781 c -0.5138,-0.3237 -0.9644,-0.59827 -1.1796,-0.75046 -0.081,0.25092 -0.2764,0.74099 -0.493,1.30827 l 1.6726,-0.55781 c 0.1579,-0.41351 0.3269,-0.86806 0.4709,-1.3009 a 1.6440186,0.84410002 9.4910489 0 0 -1.5964,-1.18856 c -3.1702,-0.39635 -6.2217,-0.75262 -8.6617,-0.9835 -1.1531,-0.0602 -2.3978,-0.11825 -3.7578,-0.10463 -0.8717,0.009 -1.7553,0.0468 -2.6523,0.12678 -0.6215,0.0554 -1.2535,0.13225 -1.8936,0.23515 -3.4087,0.54801 -6.8829,1.81105 -10.1301,4.26194 -3.5105,2.64962 -6.5119,6.50401 -8.9038,11.76442 -2.5695,5.65095 -4.4245,12.8972 -5.4957,21.96862 -1.1343,9.60626 -1.4077,21.4105 -1.0878,33.84361 0.3338,12.96845 1.3215,26.99337 2.7766,40.82789 1.5423,14.66392 3.4025,28.76953 5.5312,41.22336 2.2986,13.44792 4.9936,25.49351 8.2323,35.18407 3.3856,10.13003 7.4491,18.01198 12.4648,24.04668 1.0757,1.29422 2.1927,2.49841 3.3508,3.61151 4.0129,3.85693 8.6285,6.69797 13.6195,8.50856 6.1759,2.24047 12.2219,2.65883 17.5567,2.45104 5.9907,-0.23334 14.5147,-1.69128 16.4974,-1.92852 z"
       id="path19-85-6-0-6-8-3"
       sodipodi:nodetypes="cccccccsc"
       transform="matrix(0.45031776,0,0,0.47218518,-101.74674,2664.7034)"
       inkscape:original-d="m 2262.5464,642.61742 c -21.5686,-0.68027 -43.1369,-1.36053 -64.706,-2.04082 -8.2994,-74.29407 -16.5982,-148.58333 -24.8976,-222.87751 17.3681,0.54013 34.7353,1.08023 52.103,1.62035 -7.1281,-12.66954 0,0 0,0 v 0 0 c 0,0 1.3657,5.11466 0.6866,2.05873 -0.6791,-3.05593 14.246,52.24739 -0.6866,-2.05873"
       inkscape:path-effect="#path-effect20-0-5-9-5-3-4;#path-effect21-2-1-0-3-5-46" /><path
       style="fill:none;stroke:#c9dfba;stroke-width:2.35173;stroke-linecap:square;stroke-linejoin:round;stroke-opacity:1"
       d="m 899.90846,2862.3634 c -0.21329,-24.6746 4.17965,-53.811 47.67872,-54.9058"
       id="path9-8-2-4-8-7-9"
       sodipodi:nodetypes="cc" /><path
       style="fill:none;fill-opacity:1;stroke:#c9dfba;stroke-width:2.35173;stroke-linecap:square;stroke-linejoin:round;stroke-dasharray:none;stroke-dashoffset:0;stroke-opacity:1;paint-order:normal"
       d="m 911.40946,2862.273 c -6.81154,-35.9383 22.91624,-45.4228 36.37959,-45.4853"
       id="path24-5-9-3-2-9-3-9-1"
       sodipodi:nodetypes="cc" /><path
       style="fill:none;stroke:#c9dfba;stroke-width:2.35173;stroke-linecap:square;stroke-linejoin:round;stroke-opacity:1"
       d="m 911.8551,2862.229 36.08531,-0.3205"
       id="path13-6-8-5-6-7-97" /><path
       style="fill:#c9dfba;fill-opacity:1;fill-rule:nonzero;stroke:none;stroke-width:5.1;stroke-linecap:square;stroke-linejoin:round;stroke-dasharray:none;stroke-dashoffset:0;stroke-opacity:1;paint-order:normal"
       d="m 2262.5464,642.61742 c -2.6825,-0.49408 -9.7656,-2.05769 -15.6481,-4.09914 -4.7924,-1.66317 -9.1885,-3.72212 -13.3447,-6.62087 -3.2809,-2.28834 -6.1526,-4.91374 -8.9611,-7.94022 -0.8181,-0.8816 -1.6468,-1.81732 -2.4821,-2.81421 -3.8604,-4.60685 -8.0833,-10.78008 -12.2171,-19.53173 -4.0178,-8.50616 -7.9918,-19.55434 -11.487,-32.52828 -3.2294,-11.9873 -6.0572,-25.65814 -8.0496,-40.17534 -1.8749,-13.6613 -3.08,-27.50781 -3.5035,-40.34203 -0.4065,-12.32028 -0.096,-23.88128 1.095,-33.18232 1.1229,-8.77149 3.0242,-15.48149 5.4457,-20.49323 2.2411,-4.63818 4.8688,-7.705 7.6281,-9.70092 2.54,-1.83731 5.2262,-2.79624 7.9577,-3.27324 0.5189,-0.0906 1.0376,-0.16357 1.5557,-0.2221 0.7482,-0.0845 1.5003,-0.13761 2.2652,-0.16798 1.2117,-0.0481 2.3171,-0.0356 3.4851,-0.024 2.4496,-0.0788 5.5174,-0.24478 8.706,-0.44338 l -1.5964,-1.18856 c 0.375,0.2598 0.783,0.52187 1.1575,0.75783 l 1.6726,-0.55781 c -0.5138,-0.3237 -0.9644,-0.59827 -1.1796,-0.75046 -0.081,0.25092 -0.2764,0.74099 -0.493,1.30827 l 1.6726,-0.55781 c 0.1579,-0.41351 0.3269,-0.86806 0.4709,-1.3009 a 1.6440186,0.84410002 9.4910489 0 0 -1.5964,-1.18856 c -3.1702,-0.39635 -6.2217,-0.75262 -8.6617,-0.9835 -1.1531,-0.0602 -2.3978,-0.11825 -3.7578,-0.10463 -0.8717,0.009 -1.7553,0.0468 -2.6523,0.12678 -0.6215,0.0554 -1.2535,0.13225 -1.8936,0.23515 -3.4087,0.54801 -6.8829,1.81105 -10.1301,4.26194 -3.5105,2.64962 -6.5119,6.50401 -8.9038,11.76442 -2.5695,5.65095 -4.4245,12.8972 -5.4957,21.96862 -1.1343,9.60626 -1.4077,21.4105 -1.0878,33.84361 0.3338,12.96845 1.3215,26.99337 2.7766,40.82789 1.5423,14.66392 3.4025,28.76953 5.5312,41.22336 2.2986,13.44792 4.9936,25.49351 8.2323,35.18407 3.3856,10.13003 7.4491,18.01198 12.4648,24.04668 1.0757,1.29422 2.1927,2.49841 3.3508,3.61151 4.0129,3.85693 8.6285,6.69797 13.6195,8.50856 6.1759,2.24047 12.2219,2.65883 17.5567,2.45104 5.9907,-0.23334 14.5147,-1.69128 16.4974,-1.92852 z"
       id="path19-2-7-2-5-8-7"
       sodipodi:nodetypes="cccccccsc"
       transform="matrix(-0.45031776,0,0,0.47218518,1999.0194,2664.7021)"
       inkscape:original-d="m 2262.5464,642.61742 c -21.5686,-0.68027 -43.1369,-1.36053 -64.706,-2.04082 -8.2994,-74.29407 -16.5982,-148.58333 -24.8976,-222.87751 17.3681,0.54013 34.7353,1.08023 52.103,1.62035 -7.1281,-12.66954 0,0 0,0 v 0 0 c 0,0 1.3657,5.11466 0.6866,2.05873 -0.6791,-3.05593 14.246,52.24739 -0.6866,-2.05873"
       inkscape:path-effect="#path-effect20-2-4-4-4-1-9;#path-effect21-0-4-7-9-7-4" /><path
       style="fill:none;stroke:#c9dfba;stroke-width:2.35173;stroke-linecap:square;stroke-linejoin:round;stroke-opacity:1"
       d="m 997.47915,2862.369 c 0.2133,-24.6745 -4.17969,-53.811 -47.67864,-54.9058"
       id="path9-3-5-3-8-4-9"
       sodipodi:nodetypes="cc" /><path
       style="fill:none;fill-opacity:1;stroke:#c9dfba;stroke-width:2.35173;stroke-linecap:square;stroke-linejoin:round;stroke-dasharray:none;stroke-dashoffset:0;stroke-opacity:1;paint-order:normal"
       d="m 985.86344,2862.2717 c 6.81152,-35.9383 -22.91641,-45.423 -36.3796,-45.4857"
       id="path24-5-9-2-9-1-7-5-4"
       sodipodi:nodetypes="cc" /><path
       style="fill:none;stroke:#c9dfba;stroke-width:2.35173;stroke-linecap:square;stroke-linejoin:round;stroke-opacity:1"
       d="m 985.4178,2862.2276 -36.0854,-0.3206"
       id="path13-3-1-9-5-7-4" /><path
       style="fill:none;stroke:#c9dfba;stroke-width:2.29324;stroke-linecap:square;stroke-linejoin:round;stroke-opacity:1"
       d="m 989.2328,2967.9591 c -15.29963,1.3181 -28.12535,0.9501 -41.91504,0.8536"
       id="path14-9-8-0-6-1-0"
       sodipodi:nodetypes="cc" /><path
       style="fill:none;stroke:#c9dfba;stroke-width:2.2945;stroke-linecap:square;stroke-linejoin:round;stroke-opacity:1"
       d="m 906.88408,2967.8727 c 13.92236,1.4506 25.59351,1.0456 38.14193,0.9392"
       id="path14-9-8-0-6-5-9-1"
       sodipodi:nodetypes="cc" /><path
       style="fill:#36820d;fill-opacity:1;stroke:#234d20;stroke-width:1.134;stroke-linecap:square;stroke-linejoin:round;stroke-opacity:1"
       d="m 909.35413,2915.4705 c 3.93039,-17.0845 25.65117,-31.744 47.88926,-27.7758 -7.79127,7.1167 -7.8503,18.9975 -3.56704,27.4209 3.69449,7.1095 3.34276,22.6349 -12.91423,20.5282 -12.54315,-1.4808 -13.98269,-29.5313 -4.25545,-37.2083 -15.61982,8.8786 -18.25734,37.4811 -5.06971,49.4402 8.88442,8.8299 45.48149,19.5895 55.49146,-10.2641 3.76956,-19.1365 -18.97099,-33.7845 -27.15465,-29.8676 17.98265,-1.3976 25.15019,-26.338 -0.22861,-36.7038 l -42.93181,2.3383 -7.25922,42.092"
       id="path27-7-7-0-1-7"
       sodipodi:nodetypes="ccccccccccc" /></g></svg>
